<?xml version="1.0" encoding="UTF-8" standalone="no"?>
<svg
 xmlns="http://www.w3.org/2000/svg"
 xmlns:svg="http://www.w3.org/2000/svg"
 xmlns:cc="http://creativecommons.org/ns#"
 xmlns:dc="http://purl.org/dc/elements/1.1/"
 xmlns:rdf="http://www.w3.org/1999/02/22-rdf-syntax-ns#"
 xmlns:sodipodi="http://sodipodi.sourceforge.net/DTD/sodipodi-0.dtd"
 xmlns:inkscape="http://www.inkscape.org/namespaces/inkscape"
 version="1.1"
 width="600"
 height="600">
 <g transform="translate(0,-452.36218)">
 <g transform="matrix(5.8923406,0,0,5.8923406,-583.85109,321.98471)" id="taeguk">
 <path id="yang"
  style="fill:#e4012d"
  d="m 197.99193,59.758037 c -2.93198,-9.839073 -16.63748,-29.59336 -41.27199,-29.59336 -23.281,0 -39.71242,17.881502 -39.71242,33.637574 0,2.922157 0.40655,4.274356 1.12752,7.021674 -0.30253,-1.201276 -0.46264,-2.406482 -0.46264,-3.581238 0,-16.407296 16.42891,-27.777678 33.31652,-27.777678 22.86256,0 41.39443,18.533841 41.39443,41.390508 0,17.921907 -10.30956,33.429473 -25.29556,40.882693 l 0.005,0.0118 C 186.40938,114.75548 200.2,96.257002 200.2,74.531872 c 0,-5.142013 -0.69051,-9.67504 -2.20807,-14.773835" />
 <path id="eum"
  style="fill:#043762"
  d="m 175.01582,70.821568 c -8.46296,-5.751001 -19.30097,-3.405418 -24.98517,5.244166 -4.75305,7.223375 -11.92339,8.12114 -14.70214,8.12114 -9.05033,0 -15.24629,-6.365881 -17.08307,-12.954731 l -0.002,0 c -0.0187,-0.06581 -0.0324,-0.11885 -0.0501,-0.18466 -0.0167,-0.07269 -0.0403,-0.145371 -0.058,-0.22395 -0.72195,-2.747319 -0.89973,-4.061553 -0.89973,-6.982727 0,-15.756073 16.16566,-33.296871 39.44666,-33.296871 23.84185,0 37.48317,18.149785 40.99663,28.236383 -0.0609,-0.176803 -0.11689,-0.353606 -0.17779,-0.536302 C 190.73752,38.515775 172.02786,24.3303 150.00314,24.3303 122.28047,24.3303 99.8,46.804878 99.8,74.531479 c 0,24.782836 17.87574,45.998181 42.67036,45.998181 19.77539,0 33.06507,-11.08848 39.16181,-26.368163 3.34845,-8.356877 0.97635,-18.179253 -6.61635,-23.339929" />
 </g>
 </g>
</svg>
